<svg preserveAspectRatio="none" overflow="visible" style="display: block;" width="19" height="19" viewBox="0 0 19 19" fill="none" xmlns="http://www.w3.org/2000/svg">
<path id="Vector" d="M0 9.5C0 4.25202 4.25202 0 9.5 0C14.748 0 19 4.25202 19 9.5C19 14.748 14.748 19 9.5 19C4.25202 19 0 14.748 0 9.5ZM11.1855 13.9435V9.5H13.9014C14.3113 9.5 14.5181 9.00202 14.227 8.71472L9.82561 4.33629C9.64556 4.15625 9.35827 4.15625 9.17823 4.33629L4.77298 8.71472C4.48186 9.00585 4.68871 9.5 5.09859 9.5H7.81452V13.9435C7.81452 14.1964 8.02137 14.4032 8.27419 14.4032H10.7258C10.9786 14.4032 11.1855 14.1964 11.1855 13.9435Z" fill="#909090"/>
</svg>
